<svg width="1011" height="840" viewBox="0 0 1011 840" fill="none" xmlns="http://www.w3.org/2000/svg">
<path fill-rule="evenodd" clip-rule="evenodd" d="M694 247C723.271 247 747 223.271 747 194C747 164.729 723.271 141 694 141C664.729 141 641 164.729 641 194C641 223.271 664.729 247 694 247Z" fill="#F2F2F2"/>
<path fill-rule="evenodd" clip-rule="evenodd" d="M694 155C695.657 155 697 153.657 697 152C697 150.343 695.657 149 694 149C692.343 149 691 150.343 691 152C691 153.657 692.343 155 694 155Z" fill="black" fill-opacity="0.1"/>
<path fill-rule="evenodd" clip-rule="evenodd" d="M652 197C653.657 197 655 195.657 655 194C655 192.343 653.657 191 652 191C650.343 191 649 192.343 649 194C649 195.657 650.343 197 652 197Z" fill="black" fill-opacity="0.1"/>
<path fill-rule="evenodd" clip-rule="evenodd" d="M736 197C737.657 197 739 195.657 739 194C739 192.343 737.657 191 736 191C734.343 191 733 192.343 733 194C733 195.657 734.343 197 736 197Z" fill="black" fill-opacity="0.1"/>
<path fill-rule="evenodd" clip-rule="evenodd" d="M694 239C695.657 239 697 237.657 697 236C697 234.343 695.657 233 694 233C692.343 233 691 234.343 691 236C691 237.657 692.343 239 694 239Z" fill="black" fill-opacity="0.1"/>
<path fill-rule="evenodd" clip-rule="evenodd" d="M694 158L696 193H692L694 158Z" fill="#AFB9C5"/>
<path fill-rule="evenodd" clip-rule="evenodd" d="M711.699 211.698L693.314 196.142L696.142 193.314L711.699 211.698Z" fill="#AFB9C5"/>
<path fill-rule="evenodd" clip-rule="evenodd" d="M694 198C696.209 198 698 196.209 698 194C698 191.791 696.209 190 694 190C691.791 190 690 191.791 690 194C690 196.209 691.791 198 694 198Z" fill="#C5CFD6"/>
<g opacity="0.345889" clip-path="url(#clip0)">
<path fill-rule="evenodd" clip-rule="evenodd" d="M760.306 484.966C749.796 395.227 185.9 222.021 81.2148 307.02C-23.4705 392.019 77.1714 551.54 296.553 592.389C515.935 633.239 770.816 574.705 760.306 484.966Z" fill="#F2F2F2"/>
<path fill-rule="evenodd" clip-rule="evenodd" d="M283.847 543.274C293.552 467.037 814.28 319.892 910.951 392.102C1007.62 464.312 983.153 616.198 780.565 650.901C577.978 685.604 274.142 619.511 283.847 543.274Z" fill="#DDE3E9"/>
</g>
<path fill-rule="evenodd" clip-rule="evenodd" d="M210.5 209.673C233.972 209.673 253 199.6 253 187.173C253 174.747 233.972 164.673 210.5 164.673C187.028 164.673 168 174.747 168 187.173C168 199.6 187.028 209.673 210.5 209.673Z" fill="#F2F2F2"/>
<path fill-rule="evenodd" clip-rule="evenodd" d="M260 202.673C260 175.059 237.838 152.673 210.5 152.673C183.162 152.673 161 175.059 161 202.673" fill="#DDE3E9"/>
<rect x="208" width="5" height="160" fill="#DDE3E9"/>
<g opacity="0.7">
<path fill-rule="evenodd" clip-rule="evenodd" d="M288 159C305.545 159 319.768 150.87 319.768 140.842C319.768 130.814 305.545 122.684 288 122.684C270.455 122.684 256.232 130.814 256.232 140.842C256.232 150.87 270.455 159 288 159Z" fill="#F2F2F2"/>
<path fill-rule="evenodd" clip-rule="evenodd" d="M325 153.351C325 131.066 308.435 113 288 113C267.565 113 251 131.066 251 153.351" fill="#DDE3E9"/>
<rect x="286" width="5" height="136" fill="#DDE3E9"/>
</g>
<path d="M775.897 346.236L814.322 324.27C816.782 322.863 819.803 322.863 822.263 324.27L914.838 377.192C919.822 380.041 922.897 385.342 922.897 391.082V716" stroke="#CBCBCB" stroke-width="8"/>
<rect x="892.897" y="715" width="59" height="7" rx="3" fill="#AFB9C5"/>
<path d="M740.396 335.335C753.283 322.447 774.178 322.447 787.065 335.335V335.335C799.953 348.222 799.953 369.116 787.065 382.004L767.266 401.803L720.597 355.134L740.396 335.335Z" fill="#C5CFD6"/>
<path fill-rule="evenodd" clip-rule="evenodd" d="M740.126 382.527C753.013 395.414 765.518 403.804 768.056 401.265C770.595 398.727 762.205 386.222 749.318 373.335C736.431 360.447 723.926 352.058 721.387 354.596C718.849 357.135 727.238 369.64 740.126 382.527Z" fill="#F2F2F2"/>
<path fill-rule="evenodd" clip-rule="evenodd" d="M199.258 484.173C202.123 483.823 205.18 483.947 207.844 485.077C213.509 487.482 215.119 494.174 215.041 499.614C214.957 505.468 213.714 511.863 218.165 516.58C220.211 518.748 222.756 520.408 224.765 522.617C226.912 524.977 228.597 527.677 229.844 530.577C232.134 535.903 233.258 542.167 231.164 547.754C229.32 552.674 224.681 557.114 225.683 562.708C226.729 568.543 232.612 573.004 236.29 577.351C240.453 582.269 244.286 588.556 244.916 595.006C245.519 601.188 242.828 607.44 238.699 612.113C230.448 621.451 218.045 626.028 205.54 626C200.23 625.988 194.219 625.748 189.637 622.895C188.22 622.013 187.473 621.023 186.631 619.648C185.877 618.414 184.88 617.612 183.725 616.739C181.19 614.822 179.359 612.239 178.19 609.347C173.652 598.114 177.279 584.218 183.631 574.243C185.136 571.88 186.369 569.605 185.637 566.789C184.874 563.848 182.999 561.196 181.34 558.669C179.701 556.17 177.83 553.787 176.549 551.087C175.207 548.257 174.829 545.294 175.066 542.198C175.512 536.381 178.023 531.013 181.578 526.336C185.002 521.83 189.022 517.518 189.031 511.615C189.041 505.357 184.858 499.791 186.64 493.429C187.378 490.795 188.86 488.092 191.249 486.513C193.539 484.998 196.564 484.502 199.258 484.173Z" fill="#DDE3E9"/>
<path fill-rule="evenodd" clip-rule="evenodd" d="M197.386 494.176C197.44 493.336 198.437 492.832 199.222 493.051C200.254 493.34 200.235 494.305 200.207 495.165C200.124 497.808 200.506 500.377 201.142 502.942C202.462 508.274 204.903 513.186 206.836 518.308C208.768 523.425 209.675 528.709 208.542 534.124C207.473 539.23 205.795 544.203 204.701 549.315C203.738 553.821 202.712 558.573 204.18 563.067C205.592 567.393 208.714 570.916 210.962 574.825C215.617 582.918 217.681 591.896 217.957 601.135C218.085 605.425 217.97 609.755 216.975 613.963C216.402 616.386 215.632 619.66 213.556 621.333C212.599 622.105 210.961 622.371 210.155 621.229C209.399 620.158 210.062 618.499 210.303 617.357C211.343 612.413 211.552 607.361 211.303 602.342C211.062 597.48 210.487 592.626 208.957 587.982C207.537 583.673 205.379 579.802 202.84 576.032C200.252 572.191 197.562 568.341 196.493 563.789C195.406 559.166 196.289 554.462 197.469 549.927C198.717 545.131 200.352 540.472 202.042 535.805C203.689 531.258 204.272 526.955 203.363 522.196C201.567 512.794 196.76 503.968 197.386 494.176Z" fill="#C5CFD6"/>
<path fill-rule="evenodd" clip-rule="evenodd" d="M274.892 495.582C278.437 496.659 281.958 498.395 284.485 501.118C289.858 506.909 288.209 515.661 285.243 522.053C282.05 528.933 277.212 535.849 279.94 543.743C281.193 547.372 283.301 550.659 284.49 554.316C285.761 558.224 286.309 562.294 286.239 566.372C286.11 573.862 284.118 581.855 278.708 587.373C273.945 592.232 266.158 595.07 264.377 602.206C262.518 609.651 267.061 617.988 269.078 625.041C271.36 633.024 272.533 642.453 269.862 650.409C267.303 658.034 260.842 664.028 253.528 667.406C238.915 674.156 221.949 673.117 207.296 666.578C201.075 663.801 194.151 660.391 190.285 654.633C189.09 652.853 188.736 651.294 188.476 649.23C188.243 647.378 187.497 645.911 186.605 644.278C184.644 640.692 183.862 636.684 184.02 632.656C184.634 617.011 196.234 602.464 208.956 593.972C211.971 591.96 214.618 589.912 215.249 586.2C215.909 582.325 215.111 578.213 214.501 574.361C213.899 570.554 212.964 566.763 212.889 562.902C212.811 558.858 213.933 555.157 215.848 551.619C219.445 544.972 225.227 539.93 231.87 536.247C238.267 532.7 245.262 529.692 248.393 522.715C251.712 515.32 249.747 506.561 255.2 499.964C257.458 497.233 260.625 494.807 264.262 494.182C267.749 493.583 271.558 494.57 274.892 495.582Z" fill="#DDE3E9"/>
<path fill-rule="evenodd" clip-rule="evenodd" d="M267.651 507.811C268.154 506.844 269.584 506.769 270.387 507.44C271.443 508.324 270.914 509.456 270.432 510.46C268.95 513.547 268.052 516.789 267.452 520.159C266.204 527.166 266.485 534.262 266.063 541.341C265.642 548.414 263.935 555.147 259.774 560.965C255.85 566.452 251.283 571.462 247.327 576.943C243.841 581.773 240.153 586.863 239.516 592.954C238.901 598.817 240.707 604.626 241.288 610.434C242.492 622.457 240.204 634.171 235.688 645.257C233.591 650.405 231.189 655.472 227.821 659.933C225.882 662.503 223.267 665.977 219.963 666.869C218.44 667.281 216.385 666.739 216.042 664.964C215.718 663.298 217.363 661.682 218.242 660.455C222.047 655.146 224.938 649.273 227.275 643.198C229.54 637.314 231.41 631.265 232.053 624.963C232.649 619.116 232.153 613.401 231.158 607.606C230.144 601.701 229.015 595.732 230.149 589.781C231.3 583.736 234.795 578.628 238.55 573.876C242.521 568.85 246.873 564.19 251.293 559.549C255.6 555.027 258.536 550.238 259.966 544.126C262.79 532.049 261.791 519.078 267.651 507.811Z" fill="#C5CFD6"/>
<path fill-rule="evenodd" clip-rule="evenodd" d="M165.306 540C171.2 540 176.382 543.124 179.953 547.558C184.133 552.748 184.977 559.086 186.675 565.272C187.519 568.35 188.972 571.406 191.517 573.498C193.833 575.4 196.772 575.78 199.543 576.71C205.082 578.567 209.555 583.041 211.321 588.499C213.476 595.158 211.193 601.873 211.586 608.622C211.947 614.819 218.058 618.685 222.974 621.656C227.821 624.586 232.189 627.328 233.649 633.035C235.197 639.088 235.716 645.844 233.572 651.823C230.002 661.779 219.552 666.163 209.456 666.842C200.293 667.459 188.772 666.491 181.891 659.84C177.773 655.86 176.282 650.293 176.467 644.755C176.582 641.311 177.264 637.899 178.146 634.571C178.771 632.213 179.616 629.864 179.856 627.427C180.496 620.942 174.503 619.697 169.401 617.916C162.918 615.654 158.38 611.38 155.224 605.425C152.285 599.881 151.052 593.658 152.814 587.554C153.714 584.437 155.346 581.61 157.559 579.205C158.533 578.146 159.907 577.263 160.786 576.151C161.607 575.112 161.428 573.766 161.145 572.55C159.837 566.931 155.762 562.278 154.305 556.668C152.989 551.605 153.767 545.304 158.395 542.038C160.395 540.627 162.862 540.016 165.306 540Z" fill="#C5CFD6"/>
<path fill-rule="evenodd" clip-rule="evenodd" d="M173.338 554.641C179.585 561.296 181.283 570.325 181.781 579.076C182.061 583.983 181.77 589.159 183.212 593.919C184.445 597.993 187.337 601.107 190.318 604.051C196.319 609.975 203.011 615.999 204.766 624.574C205.796 629.606 205.101 634.804 206.524 639.78C207.817 644.304 210.096 648.748 212.867 652.568C215.098 655.645 218.004 658 220.443 660.867C221.187 661.743 222.253 663.031 221.946 664.267C221.586 665.714 219.743 666.172 218.435 665.945C215.386 665.415 212.819 662.503 210.825 660.386C207.91 657.291 205.432 653.962 203.419 650.227C201.183 646.08 199.383 641.679 198.614 637.026C197.816 632.199 198.213 627.168 196.391 622.535C193.324 614.74 185.886 610.14 180.508 604.064C173.808 596.494 174.807 587.072 175.493 577.759C175.87 572.641 176.245 566.862 173.659 562.189C172.672 560.406 170.471 558.743 170.047 556.715C169.658 554.858 171.78 552.981 173.338 554.641Z" fill="#AFB9C5"/>
<path fill-rule="evenodd" clip-rule="evenodd" d="M180 664C180 702.058 186.211 722 219 722C251.789 722 258 702.058 258 664H180Z" fill="#89C5CC"/>
<rect x="315" y="609" width="38" height="9" rx="2" fill="#AFB9C5"/>
<path fill-rule="evenodd" clip-rule="evenodd" d="M332.217 536H334H335H336.783C337.301 551.419 339.707 566.085 344 580H350.5C359.06 580 366 586.94 366 595.5C366 604.06 359.06 611 350.5 611H317.5C308.94 611 302 604.06 302 595.5C302 586.94 308.94 580 317.5 580H325C331.44 559.128 332.217 536 332.217 536Z" fill="#DDE3E9"/>
<path fill-rule="evenodd" clip-rule="evenodd" d="M298.622 466.679C298.622 466.679 315.811 465 333 465C350.189 465 367.378 466.679 367.378 466.679L372 546.133C372 546.133 352.5 548 333 548C313.5 548 294 546.133 294 546.133L298.622 466.679Z" fill="#C5CFD6"/>
<path fill-rule="evenodd" clip-rule="evenodd" d="M271 722V640V618H292H375H396V640V722H375V640H292V722H271Z" fill="#F2F2F2"/>
<path fill-rule="evenodd" clip-rule="evenodd" d="M689.381 440.208C698.214 461.197 713.229 475.781 721.182 497.605C725.898 510.547 727.864 524.62 727.983 539.032C728.048 546.86 727.911 554.694 727.875 562.522C727.839 570.156 727.632 577.741 726.984 585.327C726.332 592.952 725.603 600.487 725.282 608.159C725.031 614.137 724.917 621.091 722.891 626.544C721.279 630.881 717.183 631.516 716.097 626.256C715.493 623.333 715.569 620.068 715.636 617.063C715.721 613.208 715.945 609.359 716.06 605.504C716.519 590.036 715.923 574.566 716.235 559.092C716.539 543.973 718.482 528.871 716.332 513.853C714.556 501.452 710.046 490.802 704.862 480.593C699.874 470.771 694.445 461.187 691.075 450.014C690.107 446.806 689.359 443.481 689 440.03C689.157 439.957 689.284 440.016 689.381 440.208Z" fill="#C1DEE2"/>
<path fill-rule="evenodd" clip-rule="evenodd" d="M686.974 481.617C688.723 482.88 689.7 484.728 690.882 486.551C692.352 488.817 694.081 490.863 695.551 493.131C698.615 497.86 701.308 502.879 704.102 507.799C709.406 517.137 713.433 527.091 715.427 537.895C717.495 549.092 718.052 560.648 718.919 572.012C719.839 584.056 720.765 596.188 720.887 608.279C720.942 613.696 721.235 619.446 720.584 624.825C720.179 628.173 718.668 631.027 715.261 631C708.025 630.942 704.627 622.927 703.208 616.354C701.119 606.674 700.702 596.393 701.033 586.494C701.432 574.558 703.504 562.802 704.4 550.912C705.35 538.325 704.814 525.96 700.486 514.109C698.3 508.12 695.763 502.274 693.484 496.325C692.514 493.792 691.719 491.19 690.409 488.831C688.951 486.208 687.142 483.826 686 481C686.324 481.206 686.649 481.411 686.974 481.617Z" fill="#89C5CC"/>
<path fill-rule="evenodd" clip-rule="evenodd" d="M770.334 456.518C770.556 456.345 770.778 456.173 771 456C770.361 458.693 769.207 460.88 768.324 463.341C767.531 465.554 767.129 468.058 766.595 470.477C765.34 476.158 763.89 481.711 762.706 487.44C760.36 498.777 760.804 510.99 762.342 523.568C763.795 535.45 766.092 547.313 767.187 559.192C768.095 569.043 768.485 579.202 767.619 588.601C767.031 594.984 765.103 602.606 759.848 601.962C757.374 601.659 756.084 598.681 755.564 595.32C754.729 589.922 754.554 584.246 754.229 578.878C753.502 566.896 753.358 554.951 753.214 543.092C753.078 531.904 752.705 520.494 753.452 509.587C754.173 499.063 756.428 489.58 759.653 480.83C761.351 476.22 762.97 471.502 764.878 467.108C765.793 465.001 766.911 463.139 767.827 461.033C768.563 459.339 769.148 457.601 770.334 456.518Z" fill="#C1DEE2"/>
<path fill-rule="evenodd" clip-rule="evenodd" d="M689.209 516.302C690.166 514.695 692.272 519.993 692.593 520.66C692.457 520.328 692.321 519.997 692.184 519.667C694.083 522.825 695.821 526.113 696.901 529.734C697.97 533.319 698.888 536.977 699.891 540.587C701.774 547.361 704.202 553.943 705.907 560.778C707.569 567.438 707.988 573.986 707.585 580.875C707.167 588.035 706.911 595.306 707.399 602.462C707.632 605.88 708.743 609.064 709.504 612.354C710.266 615.648 710.866 618.986 711.767 622.239C711.974 621.815 712 623.232 712 623.339C711.994 624.152 711.881 624.833 711.619 625.604C710.948 627.586 709.691 629.269 707.778 629.816C704.322 630.803 701.112 627.659 699.998 624.339C698.399 619.575 697.517 614.311 696.755 609.304C696.057 604.713 695.891 600.094 696.099 595.44C696.508 586.261 698.169 577.202 698.618 568.026C699.107 558.036 697.128 548.649 695.471 538.925C694.673 534.239 693.91 529.598 692.356 525.134C691.727 523.326 690.907 521.731 690.048 520.061C689.558 519.112 688.569 517.418 689.209 516.302Z" fill="#C1DEE2"/>
<path fill-rule="evenodd" clip-rule="evenodd" d="M717.252 500.697C716.856 512.142 716.172 523.5 714.646 534.824C713.089 546.38 711.3 557.897 709.802 569.463C708.343 580.722 706.815 592.168 707.018 603.585C707.168 611.993 705.774 626.219 715.113 630.369C724.572 634.572 726.601 616.623 727.222 610.699C728.412 599.333 728.027 587.847 727.449 576.419C726.856 564.689 725.866 553.02 724.64 541.334C723.277 528.353 722.208 515.314 721.349 502.296C720.925 495.857 720.82 489.429 720.937 482.988C721.048 476.911 720.817 470.77 718.656 465C718.543 465.082 718.431 465.164 718.318 465.246" fill="#69A1AC"/>
<path fill-rule="evenodd" clip-rule="evenodd" d="M766.083 536.955C764.382 539.433 762.667 541.887 761.061 544.512C758.186 549.209 755.587 554.432 754.805 561.147C753.169 575.2 754.481 590.379 754.798 604.863C754.863 607.822 754.489 610.693 755.655 613.51C756.713 616.064 758.691 618.01 760.576 618C764.611 617.977 763.995 608.095 764.002 603.746C764.014 596.123 763.159 588.422 763.233 580.806C763.306 573.26 763.765 565.694 764.859 558.528C765.967 551.275 767.589 544.309 769.729 537.81C770.026 536.908 772.158 529.937 770.144 531.139" fill="#89C5CC"/>
<path fill-rule="evenodd" clip-rule="evenodd" d="M748.262 462C745.609 462 745.625 475.226 745.546 476.925C745.257 483.055 745.325 489.188 745.143 495.319C744.744 508.701 744.254 522.2 742.243 535.426C741.161 542.547 739.907 549.636 738.557 556.702C737.204 563.789 735.387 570.867 734.497 578.044C733.642 584.943 734.125 591.977 734.242 598.91C734.359 605.885 734.57 612.874 735.484 619.788C735.709 621.494 735.974 623.195 736.257 624.891C736.492 626.305 736.355 628.058 736.754 629.401C737.393 631.552 740.133 632.256 741.978 631.92C746.97 631.009 750.159 624.74 751.865 620.16C754.043 614.311 755.199 607.967 756.339 601.804C757.631 594.821 758.388 587.732 758.743 580.623C759.466 566.175 758.539 551.712 757.504 537.31C756.928 529.301 756.263 521.327 755.246 513.367C754.232 505.441 752.932 497.55 752.086 489.601C751.471 483.825 750.865 478.04 750.467 472.241C750.371 470.859 750.291 462 748.262 462" fill="#69A1AC"/>
<path fill-rule="evenodd" clip-rule="evenodd" d="M744.941 558.139C744.508 544.253 738.927 483.259 737.657 466.467C737.339 462.264 734.282 444.765 733.885 440C732.81 441.347 732.901 462.309 732.913 467.126C732.926 471.891 732.335 476.576 732.031 481.315C731.721 486.151 724.572 548.601 723.645 553.247C721.799 562.491 720.564 571.976 719.611 581.428C718.683 590.639 717.24 600.358 718.482 609.618C718.767 611.75 719.219 613.848 719.955 615.806C720.749 617.922 721.294 619.879 721.932 622.093C722.958 625.659 724.815 628.789 727.668 630.262C733.517 633.281 736.658 626.447 738.251 620.497C740.793 610.995 742.426 601.338 743.191 591.359C744.037 580.318 745.287 569.255 744.941 558.139" fill="#89C5CC"/>
<rect x="683" y="599" width="91" height="91" rx="2" fill="white"/>
<rect x="673" y="609" width="10" height="113" rx="2" fill="#C5CFD6"/>
<rect x="723" y="609" width="10" height="113" rx="2" fill="#C5CFD6"/>
<rect x="774" y="609" width="10" height="113" rx="2" fill="#C5CFD6"/>
<path fill-rule="evenodd" clip-rule="evenodd" d="M711.912 484.31C704.724 488.269 697.661 490.181 694.346 489.4C686.033 487.443 685.269 459.657 691.701 448.702C698.133 437.748 731.2 432.974 732.867 454.677C733.445 462.21 729.984 468.932 724.869 474.418L734.04 513.473H707.4L711.912 484.31Z" fill="#B28B67"/>
<path fill-rule="evenodd" clip-rule="evenodd" d="M734.423 454.56C735.026 454.621 735.639 454.652 736.26 454.652C745.455 454.652 752.91 447.841 752.91 439.439C752.91 431.037 745.455 424.227 736.26 424.227C727.143 424.227 719.738 430.921 719.612 439.223C706.229 434.987 688.862 439.937 691.186 449.865C692.612 455.958 700.055 459.136 707.651 462.38C708.004 462.531 708.357 462.682 708.711 462.833C709.881 460.977 712.113 459.722 714.674 459.722C718.448 459.722 721.508 462.447 721.508 465.807C721.508 467.018 721.111 468.146 720.427 469.094C723.101 471.219 724.989 473.778 725.445 477.097C729.756 477.097 736.724 465.532 734.423 454.56Z" fill="#191847"/>
<path fill-rule="evenodd" clip-rule="evenodd" d="M745.14 774.113C697.936 774.113 659.67 740.74 659.67 699.572C659.67 658.404 697.936 625.031 745.14 625.031C792.344 625.031 830.61 658.404 830.61 699.572C830.61 740.74 792.344 774.113 745.14 774.113Z" fill="#C5CFD6"/>
<path fill-rule="evenodd" clip-rule="evenodd" d="M649.321 665.158C658.958 683.83 674.015 729.158 674.015 729.158L661.232 734.494C661.232 734.494 628.796 686.847 608.974 654.276C609.897 661.608 610.838 669.863 611.71 678.541C613.775 699.099 611.711 743.513 610.6 756.342C609.901 764.406 597.91 762.716 596.791 756.322C596.601 755.238 595.828 751.436 594.675 745.762C589.022 717.942 574.226 645.13 574.2 627.301C574.19 620.127 589.529 613.683 598.672 618.699C604.952 612.576 616.838 609.048 623.666 619.161C628.007 625.591 638.321 643.844 649.321 665.158Z" fill="#B28B67"/>
<path fill-rule="evenodd" clip-rule="evenodd" d="M673.101 712.376L629.226 617.412C618.715 601.964 589.245 620.556 592.829 629.515C600.967 649.857 642.354 715.712 644.779 721.772L673.101 712.376Z" fill="#1F28CF"/>
<path fill-rule="evenodd" clip-rule="evenodd" d="M672.401 723.408C673.092 722.538 674.433 722.352 675.365 723.065C677.182 724.454 679.905 726.677 680.872 728.206C682.373 730.582 684.387 735.597 684.387 735.597C681.37 737.188 630.168 764.197 630.168 764.197C630.168 764.197 624.021 758.928 628.253 756.017C632.484 753.106 635.237 751.107 635.237 751.107L654.02 727.463C654.353 727.044 654.996 726.969 655.459 727.294L659.415 730.078C659.415 730.078 664.766 729.651 667.401 728.261C669.068 727.381 671.119 725.023 672.401 723.408Z" fill="#E4E4E4"/>
<path fill-rule="evenodd" clip-rule="evenodd" d="M610.652 749.931C611.686 749.507 612.886 749.958 613.302 750.994C614.116 753.026 615.27 756.219 615.27 757.994C615.27 760.737 614.269 766 614.269 766C610.786 766 551.663 766 551.663 766C551.663 766 549.223 758.629 554.481 758.041C559.739 757.453 563.216 756.98 563.216 756.98L592.466 745.066C592.964 744.863 593.533 745.091 593.754 745.581L595.664 749.813C595.664 749.813 600.531 751.887 603.574 751.887C605.529 751.887 608.662 750.747 610.652 749.931Z" fill="#E4E4E4"/>
<path fill-rule="evenodd" clip-rule="evenodd" d="M571.125 634.598C571.125 661.541 585.129 724.389 585.138 730.322L615.27 730.343C615.27 730.343 608.654 646.225 610.578 645.319C612.502 644.413 689.445 652.338 712.521 652.338C745.797 652.338 759.563 633.165 760.68 597.649H694.761C681.339 598.961 611.331 611.863 585.331 616.298C574.2 618.196 571.125 627.176 571.125 634.598Z" fill="#2B44FF"/>
<path fill-rule="evenodd" clip-rule="evenodd" d="M829.096 634.446C824.956 628.889 801.009 569.796 801.009 569.796L781.349 572.404C781.349 572.404 813.004 635.155 815.291 638.777C818.261 643.481 815.634 651.208 813.852 656.448C813.577 657.258 813.321 658.009 813.11 658.681C816.852 659.668 818.275 657.711 819.776 655.648C821.471 653.318 823.265 650.852 828.609 652.34C830.673 652.915 832.657 653.654 834.595 654.375C841.289 656.867 847.438 659.156 854.501 653.803C855.621 652.955 856.564 650.18 853.005 648.563C844.138 644.534 831.119 637.163 829.096 634.446ZM615.774 606.981L649.282 581.027L658.439 598.163L624.477 613.649C615.397 624.898 610.204 629.677 608.899 627.987C607.797 626.561 608.462 625.119 609.075 623.79C609.552 622.755 609.998 621.789 609.551 620.954C608.532 619.048 601.903 619.679 595.641 620.524C589.378 621.368 591.017 618.691 592.438 617.33C598.597 613.404 606.376 609.955 615.774 606.981Z" fill="#B28B67"/>
<path fill-rule="evenodd" clip-rule="evenodd" d="M718.839 496.569L706.656 492.888C690.131 530.605 665.486 567.098 624.309 597.923L634.491 613.974C670.68 594.496 704.937 579.366 718.839 550.14C723.504 540.331 719.219 508.298 718.839 496.569Z" fill="#C5CFD6"/>
<path fill-rule="evenodd" clip-rule="evenodd" d="M760.68 602.72C760.68 602.72 708.335 607.79 678.278 602.72C675.795 602.301 675.404 598.503 676.555 595.926C694.484 555.789 706.778 520.767 706.778 492.888C711.713 495.161 724.05 493.57 724.05 493.57C746.154 522.299 756.315 555.263 760.68 602.72Z" fill="#323337"/>
<path fill-rule="evenodd" clip-rule="evenodd" d="M730.385 491.162C729.814 490.81 729.513 490.635 729.513 490.635L729.545 491.162H720.333C719.871 493.649 719.192 502.868 718.204 516.311C714.611 565.16 706.916 669.783 690.539 709.821H803.542C801.158 664.301 782.79 609.866 763.761 563.644C777.803 576.408 794.201 597.804 807.454 633.421L828.62 628.457C807.049 543.531 743.85 499.733 731.588 491.916C731.468 491.663 731.349 491.412 731.23 491.162H730.385Z" fill="#DDE3E9"/>
<path fill-rule="evenodd" clip-rule="evenodd" d="M292.088 484.31C299.276 488.269 306.339 490.181 309.654 489.4C317.967 487.443 318.731 459.657 312.299 448.702C305.867 437.748 272.8 432.974 271.133 454.677C270.555 462.21 274.016 468.932 279.131 474.418L269.96 513.473H296.6L292.088 484.31Z" fill="#B28B67"/>
<path fill-rule="evenodd" clip-rule="evenodd" d="M297.115 436.077C293.604 435.551 284.15 435.19 282.407 435.19C281.293 435.19 280.085 435.422 279.425 434.488C278.885 433.722 279.083 432.428 278.922 431.54C278.734 430.508 278.468 429.489 278.199 428.473C277.434 425.582 276.276 422.832 274.656 420.25C271.617 415.405 267.164 411.611 261.543 409.402C255.335 406.964 248.31 406.406 241.633 406.9C234.488 407.43 228.02 409.585 221.273 411.613C214.844 413.546 208.11 414.306 201.386 413.362C194.611 412.412 189.492 409.057 183.778 405.873C177.928 402.613 171.243 400.481 164.327 400.971C157.872 401.429 151.922 403.864 146.584 407.117C141.589 410.161 137.468 413.823 135.142 418.977C132.639 424.522 132.641 430.608 136.757 435.507C142.723 442.61 153.798 444.447 163.013 444.264C168.342 444.159 173.577 443.27 178.608 441.653C185.319 439.496 191.118 435.841 197.396 432.876C200.342 431.484 203.388 430.341 206.58 429.518C209.677 428.718 212.728 428.352 215.533 430.061C218.5 431.87 221.158 433.647 224.552 434.779C227.808 435.865 231.257 436.473 234.726 436.448C241.476 436.401 248.129 434.479 254.685 433.192C260.03 432.143 265.75 431.097 271.2 432.106C273.474 432.527 276.796 433.396 277.617 435.555C263.793 437.844 258.363 453.465 262.261 464.932C264.364 471.122 277.008 478.357 281.924 475.103C285.039 473.042 283.148 470.335 281.924 468.549C279.581 465.128 278.779 460.733 283.115 458.351C286.856 456.297 290.789 461.175 290.863 461.17C291.891 461.096 300.774 456.506 306.894 449.808C312.932 450.135 313.848 446.498 312.406 443.523C310.965 440.548 301.966 436.805 297.115 436.077Z" fill="#191847"/>
<path fill-rule="evenodd" clip-rule="evenodd" d="M392.29 673.378C390.225 694.007 392.289 738.35 393.4 751.141C394.099 759.18 406.09 757.075 407.21 750.641C407.399 749.552 408.172 745.722 409.325 740.009C414.978 711.992 429.774 638.667 429.8 620.838C429.812 612.663 409.891 606.125 401.921 616.001C395.369 611.796 386.068 610.668 380.334 619.161C375.993 625.591 365.679 643.844 354.679 665.158C345.043 683.83 329.985 729.158 329.985 729.158L342.768 734.494C342.768 734.494 374.346 688.108 394.228 655.585C393.568 661.181 392.912 667.173 392.29 673.378Z" fill="#B28B67"/>
<path fill-rule="evenodd" clip-rule="evenodd" d="M330.899 712.376L374.774 617.412C385.285 601.964 414.755 620.556 411.171 629.515C403.033 649.857 361.646 715.712 359.221 721.772L330.899 712.376Z" fill="#1F28CF"/>
<path fill-rule="evenodd" clip-rule="evenodd" d="M430.91 628.253C430.91 655.17 417.997 718.442 417.988 724.369L386.706 723.405C386.706 723.405 394.908 640.888 393.624 640.329C391.697 639.491 314.651 650.072 291.544 650.871C258.223 652.023 244.439 633.346 243.32 597.903H307.864C307.864 597.903 390.65 606.932 416.685 610.462C427.831 611.974 430.91 620.838 430.91 628.253Z" fill="#2B44FF"/>
<path fill-rule="evenodd" clip-rule="evenodd" d="M359.969 706.854C351.353 704.891 342.483 710.211 340.156 718.736L337.84 727.226C335.513 735.751 340.612 744.253 349.228 746.216L359.655 748.591C368.271 750.554 377.141 745.234 379.468 736.709L381.785 728.219C384.111 719.694 379.012 711.192 370.396 709.23L359.969 706.854ZM353.772 714.883C351.618 714.393 349.401 715.722 348.819 717.854L345.035 731.721C344.453 733.852 345.728 735.978 347.882 736.469L365.852 740.562C368.006 741.053 370.223 739.723 370.805 737.592L374.589 723.724C375.171 721.593 373.896 719.467 371.742 718.977L353.772 714.883Z" fill="#C5CFD6"/>
<path fill-rule="evenodd" clip-rule="evenodd" d="M394.457 734.718C393.424 734.295 392.224 734.745 391.808 735.782C390.994 737.814 389.84 741.006 389.84 742.781C389.84 745.525 390.84 750.787 390.84 750.787C394.324 750.787 453.446 750.787 453.446 750.787C453.446 750.787 455.887 743.416 450.629 742.829C445.371 742.241 441.894 741.767 441.894 741.767L412.644 729.854C412.146 729.651 411.577 729.878 411.356 730.368L409.446 734.6C409.446 734.6 404.579 736.675 401.536 736.675C399.581 736.675 396.448 735.534 394.457 734.718Z" fill="#E4E4E4"/>
<rect x="390.95" y="750.788" width="58.83" height="7.09915" rx="3.54958" fill="#2F3676"/>
<path d="M228.89 613.734C228.89 608.211 233.367 603.734 238.89 603.734H359.86C365.383 603.734 369.86 608.211 369.86 613.734V663.569H232.89C230.681 663.569 228.89 661.779 228.89 659.569V613.734Z" fill="#2F3676"/>
<path fill-rule="evenodd" clip-rule="evenodd" d="M358.76 603.734H362.258C367.099 603.734 371.244 607.201 372.1 611.965L396.5 747.745H384.639" fill="#2F3676"/>
<path fill-rule="evenodd" clip-rule="evenodd" d="M390.95 768.028C401.985 768.028 410.93 759.855 410.93 749.773C410.93 739.691 401.985 731.518 390.95 731.518C379.915 731.518 370.97 739.691 370.97 749.773C370.97 759.855 379.915 768.028 390.95 768.028Z" fill="#191847"/>
<path fill-rule="evenodd" clip-rule="evenodd" d="M327.68 688.924C327.68 731.492 289.911 766 243.32 766C196.729 766 158.96 731.492 158.96 688.924C158.96 646.355 196.729 611.847 243.32 611.847C289.911 611.847 327.68 646.355 327.68 688.924ZM312.14 688.924C312.14 723.65 281.328 751.802 243.32 751.802C205.312 751.802 174.5 723.65 174.5 688.924C174.5 654.197 205.312 626.045 243.32 626.045C281.328 626.045 312.14 654.197 312.14 688.924Z" fill="#191847"/>
<rect x="238.88" y="621.989" width="8.88" height="133.87" fill="#191847"/>
<rect width="8.5053" height="140.337" rx="2" transform="matrix(0.738258 0.674518 -0.738258 0.674518 291.983 638.725)" fill="#191847"/>
<rect x="316.58" y="684.867" width="8.11331" height="146.52" rx="2" transform="rotate(90 316.58 684.867)" fill="#191847"/>
<rect width="8.5053" height="140.337" rx="2" transform="matrix(-0.738258 0.674518 -0.738258 -0.674518 298.262 733.385)" fill="#191847"/>
<path fill-rule="evenodd" clip-rule="evenodd" d="M358.036 515.187L319.508 534.467L333.736 548.419L361.731 524.999C376.479 521.286 383.223 518.569 381.964 516.85C380.902 515.4 379.19 515.45 377.613 515.496C376.384 515.533 375.238 515.566 374.545 514.886C372.962 513.334 375.982 507.906 379.09 502.866C382.197 497.827 378.874 498.266 376.974 498.991C370.756 502.837 364.443 508.235 358.036 515.187ZM396.774 542.239L379.85 550.733L380.814 566.25C380.814 566.25 391.775 559.022 401.205 556.62C413.228 553.557 418.093 551.218 423.969 544.378C427.112 540.718 429.78 533.361 426.788 530.965C425.64 530.046 421.363 532.217 417 534.433C413.674 536.121 410.298 537.835 408.218 538.227C405.418 538.753 405.745 535.437 406.007 532.787C406.195 530.886 406.349 529.327 405.289 529.778C400.336 529.856 396.774 542.239 396.774 542.239Z" fill="#997659"/>
<path fill-rule="evenodd" clip-rule="evenodd" d="M300.745 530.172C314.24 530.041 332.235 527.437 351.437 516.301L358.977 531.666C345.733 543.675 327.11 553.542 310.826 553.125C297.993 552.795 291.435 538.613 300.745 530.172Z" fill="#2026A2"/>
<path fill-rule="evenodd" clip-rule="evenodd" d="M264.348 635.435C251.519 633.907 239.731 632.503 232.745 633.759C224.907 610.501 231.415 595.858 237.423 582.34C241.045 574.192 244.484 566.454 244.492 557.484C244.513 531.365 267.467 491.161 270.845 491.161H271.814H298.579H301.643C303.02 507.325 308.897 524.825 314.812 542.437C316.193 546.55 317.577 550.67 318.905 554.779C341.288 559.421 390.99 543.263 390.99 543.263C390.99 543.263 403.537 566.979 402.59 577.079C373.661 590.885 348.866 597.041 328.438 597.447C329.087 608.522 327.612 619.06 322.656 628.688C316.015 641.59 288.359 638.295 264.348 635.435Z" fill="#1F28CF"/>
<defs>
<clipPath id="clip0">
<rect width="926.295" height="376.2" fill="white" transform="translate(39.6204 284.188)"/>
</clipPath>
</defs>
</svg>
