<svg id="Capa_1" enable-background="new 0 0 512 512" height="512" viewBox="0 0 512 512" width="512" xmlns="http://www.w3.org/2000/svg"><g><path d="m40 24h192c8.837 0 16 7.163 16 16v336c0 8.837-7.163 16-16 16h-192c-8.837 0-16-7.163-16-16v-336c0-8.837 7.163-16 16-16z" fill="#46f8ff"/><path d="m248 40v336c-.026 8.826-7.174 15.974-16 16h-40c8.826-.026 15.974-7.174 16-16v-336c-.026-8.826-7.174-15.974-16-16h40c8.826.026 15.974 7.174 16 16z" fill="#00d7df"/><circle cx="136" cy="184" fill="#ffcd00" r="80"/><path d="m216 184c0 44.183-35.817 80-80 80-5.347 0-10.68-.536-15.92-1.6 43.299-8.903 71.183-51.22 62.28-94.52-6.444-31.343-30.937-55.836-62.28-62.28 43.299-8.792 85.528 19.181 94.32 62.48 1.064 5.24 1.6 10.573 1.6 15.92z" fill="#ddb200"/><path d="m248 168h224c8.826.026 15.974 7.174 16 16v240c-.026 8.826-7.174 15.974-16 16h-224z" fill="#ebe5dd"/><path d="m488 184v240c-.026 8.826-7.174 15.974-16 16h-32c8.826-.026 15.974-7.174 16-16v-240c-.026-8.826-7.174-15.974-16-16h32c8.826.026 15.974 7.174 16 16z" fill="#acabb1"/><path d="m488 72v32c-.103 13.254-10.931 23.916-24.185 23.813-10.03-.078-18.953-6.385-22.375-15.813-.969-2.555-1.457-5.267-1.44-8v-24c.017-2.733-.471-5.445-1.44-8z" fill="#fee9ab"/><path d="m456 376h-64c0-17.673 14.327-32 32-32s32 14.327 32 32z" fill="#ffde55"/><path d="m392 376h64c0 17.673-14.327 32-32 32s-32-14.327-32-32z" fill="#fee9ab"/><path d="m441.44 112h-49.44v-32c.012-13.255 10.766-23.991 24.021-23.979 6.353.006 12.444 2.53 16.939 7.019 2.545 2.505 4.464 5.574 5.6 8.96.969 2.555 1.457 5.267 1.44 8v24c-.017 2.733.471 5.445 1.44 8z" fill="#ebe5dd"/><path d="m416 56c-13.255 0-24 10.745-24 24v184h-144v-176c0-17.673 14.327-32 32-32z" fill="#fee9ab"/><path d="m416 56c-13.255 0-24 10.745-24 24v184h-32v-184c0-13.255 10.745-24 24-24z" fill="#ffd422"/><path d="m413.28 306.72c4.502 4.497 7.034 10.597 7.04 16.96-.019 6.384-2.548 12.504-7.04 17.04l-28.24 28.32-.08-.08-33.92-33.92 28.24-28.32c9.401-9.359 24.599-9.359 34 0z" fill="#00ddc2"/><path d="m385.04 369.04-28.32 28.24c-9.389 9.389-24.611 9.389-34 0s-9.389-24.611 0-34l28.32-28.24 33.92 33.92z" fill="#c6c5ca"/><path d="m184 344v-136c.065-8.809 7.191-15.935 16-16 6.007.003 11.507 3.371 14.24 8.72 1.162 2.25 1.766 4.747 1.76 7.28v104c.065-8.809 7.191-15.935 16-16 8.826.026 15.974 7.174 16 16 .065-8.809 7.191-15.935 16-16 8.826.026 15.974 7.174 16 16 .065-8.809 7.191-15.935 16-16 8.826.026 15.974 7.174 16 16v64l-24 64h-112l-34.32-48-5.68-8v-40c0-13.255 10.745-24 24-24s24 10.745 24 24z" fill="#ffc477"/><path d="m176 440h112v48h-112z" fill="#2488ff"/><path d="m248 440h40v48h-40z" fill="#004fac"/><g fill="#ffa733"><path d="m216 208v160h-16v-160c-.006-5.71-3.055-10.985-8-13.84 7.653-4.418 17.438-1.796 21.856 5.856 1.402 2.428 2.141 5.181 2.144 7.984z"/><path d="m280 312v56h-16v-56c-.006-5.71-3.055-10.985-8-13.84 7.653-4.418 17.438-1.796 21.856 5.856 1.402 2.428 2.141 5.181 2.144 7.984z"/><path d="m248 312v56h-16v-56c-.006-5.71-3.055-10.985-8-13.84 7.653-4.418 17.438-1.796 21.856 5.856 1.402 2.428 2.141 5.181 2.144 7.984z"/><path d="m296 296c-2.81.005-5.569.75-8 2.16 4.945 2.855 7.994 8.13 8 13.84v64l-24 64h16l24-64v-64c-.026-8.826-7.174-15.974-16-16z"/></g><path d="m420.32 323.68c-.019 6.384-2.548 12.504-7.04 17.04l-28.24 28.32-16-16 28.24-28.32c4.492-4.536 7.021-10.656 7.04-17.04.014-2.333-.337-4.655-1.04-6.88 3.786 1.084 7.229 3.122 10 5.92 4.502 4.497 7.034 10.597 7.04 16.96z" fill="#00ccb3"/><path d="m385.04 369.04-28.32 28.24c-9.387 9.389-24.608 9.391-33.998.004-2.792-2.791-4.853-6.227-6.002-10.004 8.494 2.576 17.717.271 24-6l28.32-28.24z" fill="#acabb1"/><g id="smartphone-online_payment-hand-bill-drug"><path d="m312 128h16v-16h16v-16h-16v-16h-16v16h-16v16h16z"/><path d="m436.32 120c8.868 15.287 28.449 20.491 43.737 11.623 9.851-5.714 15.923-16.234 15.943-27.623v-32c0-4.418-3.582-8-8-8h-44.32c-1.373-2.43-3.068-4.664-5.04-6.64-6.006-6-14.151-9.367-22.64-9.36h-136c-8.69.024-17.128 2.921-24 8.24v-16.24c-.04-13.238-10.762-23.96-24-24h-192c-13.238.04-23.96 10.762-24 24v336c.04 13.238 10.762 23.96 24 24h97.6l30.4 42.56v45.44c0 4.418 3.582 8 8 8h112c4.418 0 8-3.582 8-8v-40h176c13.238-.04 23.96-10.762 24-24v-240c-.04-13.238-10.762-23.96-24-24h-72v-40zm11.68-40h32v24c-.062 8.836-7.275 15.949-16.112 15.888-6.779-.047-12.792-4.361-15.008-10.768-.59-1.642-.888-3.375-.88-5.12zm-48 0c.026-8.826 7.174-15.974 16-16 8.484 0 15.637 7.538 16 16v24h-32zm-144 8c.04-13.238 10.762-23.96 24-24h108.48c-2.91 4.831-4.458 10.36-4.48 16v176h-128zm-128 256v40h-88c-4.418 0-8-3.582-8-8v-336c0-4.418 3.582-8 8-8h192c4.418 0 8 3.582 8 8v249.44c-5.161-1.92-10.839-1.92-16 0v-81.44c-.01-2.789-.525-5.554-1.52-8.16.978-5.224 1.486-10.525 1.52-15.84.092-48.694-39.308-88.242-88.001-88.334s-88.242 39.308-88.334 88.001c-.092 48.694 39.308 88.242 88.001 88.334 14.023.026 27.851-3.292 40.334-9.681v54.16c-4.831-2.91-10.36-4.458-16-4.48-17.673 0-32 14.327-32 32zm80-160c0 .48-.08.96-.08 1.44-2.538-.931-5.217-1.418-7.92-1.44-13.238.04-23.96 10.762-24 24v35.76c-11.802 8.003-25.74 12.268-40 12.24-39.765 0-72-32.236-72-72s32.235-72 72-72 72 32.236 72 72zm72 296h-96v-32h96zm2.48-48h-102.4l-36.08-50.56v-37.44c0-8.837 7.163-16 16-16s16 7.163 16 16v24h16v-160c0-4.418 3.582-8 8-8s8 3.582 8 8v160h16v-56c0-4.418 3.582-8 8-8s8 3.582 8 8v56h16v-56c0-4.418 3.582-8 8-8s8 3.582 8 8v56h16v-56c0-4.418 3.582-8 8-8s8 3.582 8 8v62.56zm189.52-256c4.418 0 8 3.582 8 8v240c0 4.418-3.582 8-8 8h-172.48l13.12-34.8c1.257 2.069 2.761 3.976 4.48 5.68 12.49 12.46 32.71 12.46 45.2 0l22.16-22.08c2.633 21.881 22.505 37.484 44.386 34.851s37.484-22.505 34.851-44.386c-2.341-19.453-18.458-34.329-38.036-35.105 6.892-16.236-.683-34.984-16.919-41.876-11.993-5.091-25.877-2.386-35.081 6.836l-53.681 53.6v-42.72c-.04-13.238-10.762-23.96-24-24-5.915-.013-11.621 2.184-16 6.16-4.379-3.976-10.085-6.173-16-6.16-2.729.022-5.435.509-8 1.44v-17.44h136c4.418 0 8-3.582 8-8v-88zm-70.56 192c4.364-12.46 18.003-19.022 30.462-14.658 6.86 2.403 12.255 7.797 14.658 14.658zm45.12 16c-4.364 12.46-18.003 19.022-30.462 14.658-6.86-2.403-12.255-7.797-14.658-14.658zm-38.96-48.96-22.64 22.64-22.64-22.64 22.64-22.64c6.252-6.252 16.388-6.252 22.64 0s6.252 16.388 0 22.64zm-33.92 33.92-22.64 22.64c-6.252 6.252-16.388 6.252-22.64 0s-6.252-16.388 0-22.64l22.64-22.64z"/><path d="m136 160c4.418 0 8 3.582 8 8h16c-.042-10.134-6.445-19.15-16-22.528v-17.472h-16v17.472c-12.473 4.393-19.023 18.066-14.629 30.539 3.38 9.596 12.455 16.009 22.629 15.989 4.418 0 8 3.582 8 8s-3.582 8-8 8-8-3.582-8-8h-16c.042 10.134 6.445 19.15 16 22.528v17.472h16v-17.472c12.473-4.393 19.023-18.066 14.629-30.539-3.38-9.596-12.455-16.009-22.629-15.989-4.418 0-8-3.582-8-8s3.582-8 8-8z"/><path d="m272 144h16v16h-16z"/><path d="m304 144h64v16h-64z"/><path d="m272 176h16v16h-16z"/><path d="m304 176h64v16h-64z"/><path d="m272 208h16v16h-16z"/><path d="m304 208h64v16h-64z"/></g></g></svg>