<svg height="512" viewBox="0 0 512 512" width="512" xmlns="http://www.w3.org/2000/svg"><g id="filled_outline" data-name="filled outline"><path d="m144 352-8 24h-72v-24l32-8 24-16z" fill="#fdc9a6"/><path d="m352 376h-56l-48-64-32-48-24 40-48 48-24-24 69.7-97.573a34.451 34.451 0 0 1 28.03-14.427 34.452 34.452 0 0 1 24.361 10.091l69.909 69.909 16 16a70.6 70.6 0 0 1 19.72 38.32z" fill="#0a6fa2"/><path d="m416 144-24-24-8 24 8 20v20h24z" fill="#fdc9a6"/><path d="m352 376 72.778-86.01a157.42 157.42 0 0 0 13.154-17.99l-36.605-61.9-29.119 4.16a23.535 23.535 0 0 0 -17.723 12.774 23.541 23.541 0 0 0 -2.485 10.522v34.444l-24 40a70.6 70.6 0 0 1 19.72 38.32z" fill="#2cbff4"/><rect fill="#ff6268" height="32" rx="16" width="464" x="24" y="376"/><path d="m416 104a25.887 25.887 0 0 0 -23.155 14.311l-.845 1.689 24 24 8-40z" fill="#55300b"/><path d="m432 352a8 8 0 0 1 -6.07-13.206l8-9.334a8 8 0 1 1 12.148 10.413l-8 9.333a7.982 7.982 0 0 1 -6.078 2.794z" fill="#fbb540"/><path d="m456 324a8 8 0 0 1 -6.07-13.207l24-28a8 8 0 0 1 12.148 10.414l-24 28a7.984 7.984 0 0 1 -6.078 2.793z" fill="#fbb540"/><path d="m437.932 272a157.29 157.29 0 0 0 11.351-21.662l7.269-16.961a56.121 56.121 0 0 0 2.862-35.72l-11.414-45.657-3.5-11.832 16.457 16.153 11.043 3.679 8-8v-24l-16-8-19.244-19.244a16.24 16.24 0 0 0 -11.483-4.756h-1.026a16.247 16.247 0 0 0 -16.247 16.247v95.753l-14.673 2.1-1.327 5.9-4.834 19.337a29.51 29.51 0 0 0 4.074 23.524 29.51 29.51 0 0 0 24.552 13.139h14.208" fill="#fdc9a6"/><path d="m416 184h-7.893v-47.893l7.893 7.893z" fill="#f6bb92"/><path d="m40 416h432a24.029 24.029 0 0 0 24-23.589c.223-13.424-11.119-24.411-24.546-24.411h-102.2l61.635-72.842a165.967 165.967 0 0 0 13.293-18.091c.424-.517 9.226-16.034 12.46-23.576l7.268-16.962a64.477 64.477 0 0 0 3.27-40.812l-7.88-31.517 10.174 3.391a8 8 0 0 0 8.187-1.932l8-8a8 8 0 0 0 2.339-5.659v-24a8 8 0 0 0 -4.422-7.156l-14.839-7.419-18.325-18.325a24.241 24.241 0 0 0 -17.141-7.1h-1.026a24.191 24.191 0 0 0 -18.035 8.062 33.735 33.735 0 0 0 -19.156 7.152 33.322 33.322 0 0 0 -10.7 15.368l-7.946 22.888a8 8 0 0 0 .162 5.5l7.428 18.571v18.459a8 8 0 0 0 8 8h16v9.062l-7.805 1.115-29.118 4.159a31.537 31.537 0 0 0 -27.077 31.22v32.228l-17.588 29.316-78.664-78.664a42.451 42.451 0 0 0 -64.562 5.343l-68.844 96.38-21.626 14.416-30.656 7.664a8 8 0 0 0 -6.06 7.761v16h-15.454c-13.427 0-24.769 10.987-24.546 24.411a24.029 24.029 0 0 0 24 23.589zm368-302.12v10.806l-5.975-5.975a17.727 17.727 0 0 1 5.975-4.831zm-8 62.12v-12a8 8 0 0 0 -.572-2.971l-6.911-17.279 2.979-8.94 12.5 12.5v28.69zm2.927 61.277 4.834-19.337.045-.186.116-.519 9.21-1.316a8 8 0 0 0 6.868-7.919v-95.753a8.256 8.256 0 0 1 8.247-8.247h1.026a8.186 8.186 0 0 1 5.827 2.413l19.243 19.244a7.986 7.986 0 0 0 2.079 1.5l11.578 5.787v15.742l-2.16 2.161-4.594-1.531-15.138-14.858a8 8 0 0 0 -13.275 7.977l14.82 57.164a48.39 48.39 0 0 1 -2.455 30.628l-7.268 16.961a150.1 150.1 0 0 1 -8.5 16.812h-9.64a21.506 21.506 0 0 1 -20.865-26.723zm-44.067 38.839a8.009 8.009 0 0 0 1.14-4.116v-34.444a15.542 15.542 0 0 1 13.339-15.381l17.5-2.5-3.43 13.72a37.483 37.483 0 0 0 35.187 46.567c-1.279 1.647-2.58 3.274-3.922 4.859l-61.618 72.823-1.445-8.644a78.1 78.1 0 0 0 -17.671-38.021zm-162.655-41.039a26.451 26.451 0 0 1 40.229-3.329l85.909 85.909a62.248 62.248 0 0 1 17.485 33.978l2.729 16.365h-42.557l-77.344-108.438a8 8 0 0 0 -13.516.322l-23.494 39.156-41.646 41.646-13.551-13.551zm83.795 132.923h-132.9l3.893-11.679 46.664-46.664a8.05 8.05 0 0 0 1.2-1.541l17.495-29.16zm-208-9.754 25.94-6.485a7.983 7.983 0 0 0 2.5-1.105l18.542-12.362 15.867 15.867-4.615 13.839h-58.234zm-32 25.754h432a8 8 0 0 1 0 16h-432a8 8 0 0 1 0-16z"/><path d="m433.926 329.46-8 9.334a8 8 0 1 0 12.148 10.412l8-9.333a8 8 0 1 0 -12.148-10.413z"/><path d="m473.926 282.793-24 28a8 8 0 0 0 12.148 10.414l24-28a8 8 0 0 0 -12.148-10.414z"/></g></svg>